:version 1.10
:name ASF
:units
  mass 1
  length 1
  angle deg
:documentation
  ASF file generated by Kaydara
:root
  axis xyz
  order  tx ty tz rx ry rz
  position 0 0 0
  orientation 0 0 0
:bonedata
  begin
    id 1
    name lowerbackDummy
    direction 0 0 0
    length 0
    axis 0 -0 0 xyz
  end
  begin
    id 2
    name lowerback
    direction 0.0149039 0.998517 -0.0523597
    length 4.68464
    axis 0 -0 0 xyz
    dof rx ry rz
    limits( -inf , inf )
( -inf , inf )
( -inf , inf )

  end
  begin
    id 3
    name upperback
    direction -0.00882659 0.999418 -0.0329624
    length 4.68933
    axis 0 -0 0 xyz
    dof rx ry rz
    limits( -inf , inf )
( -inf , inf )
( -inf , inf )

  end
  begin
    id 4
    name thorax
    direction -0.0165585 0.999826 -0.0085833
    length 4.68976
    axis 0 -0 0 xyz
    dof rx ry rz
    limits( -inf , inf )
( -inf , inf )
( -inf , inf )

  end
  begin
    id 5
    name lowerneck
    direction -0.0130877 0.999911 0.00260353
    length 3.85007
    axis 0 -0 0 xyz
    dof rx ry rz
    limits( -inf , inf )
( -inf , inf )
( -inf , inf )

  end
  begin
    id 6
    name upperneck
    direction -0.0348454 0.928205 -0.370435
    length 3.70427
    axis 0 -0 0 xyz
    dof rx ry rz
    limits( -inf , inf )
( -inf , inf )
( -inf , inf )

  end
  begin
    id 7
    name head
    direction 0 0 0
    length 0
    axis 0 0 0 xyz
    dof rx ry rz
    limits( -inf , inf )
( -inf , inf )
( -inf , inf )

  end
  begin
    id 8
    name lclavicle
    direction 0.987582 0.144023 0.0627671
    length 7.76078
    axis 0 -0 0 xyz
    dof rx ry rz
    limits( -inf , inf )
( -inf , inf )
( -inf , inf )

  end
  begin
    id 9
    name lhumerus
    direction 1 -4.48958e-011 -1.45183e-018
    length 12.0426
    axis 180 -30 -90 xyz
    dof rx ry rz
    limits( -inf , inf )
( -inf , inf )
( -inf , inf )

  end
  begin
    id 10
    name lradius
    direction 1 -4.48999e-011 3.74805e-027
    length 5.43051
    axis 180 -30 -90 xyz
    dof rz ry rx
    limits( -inf , inf )
( -inf , inf )
( -inf , inf )

  end
  begin
    id 11
    name lwrist
    direction 1 -4.48988e-011 -4.48237e-017
    length 2.71524
    axis -90 90 0 xyz
    dof rz rx ry
    limits( -inf , inf )
( -inf , inf )
( -inf , inf )

  end
  begin
    id 12
    name lhand
    direction 1 -4.48882e-011 -4.48237e-017
    length 1.61667
    axis -90 90 0 xyz
    dof ry rx rz
    limits( -inf , inf )
( -inf , inf )
( -inf , inf )

  end
  begin
    id 13
    name lfingers
    direction 0 0 0
    length 0
    axis 0 0 0 xyz
    dof rz ry rx
    limits( -inf , inf )
( -inf , inf )
( -inf , inf )

  end
  begin
    id 14
    name lthumb
    direction 0 0 0
    length 0
    axis 0 0 0 xyz
    dof ry rx rz
    limits( -inf , inf )
( -inf , inf )
( -inf , inf )

  end
  begin
    id 15
    name rclavicle
    direction -0.980998 0.169556 0.0943023
    length 7.31716
    axis 0 -0 0 xyz
    dof rx ry rz
    limits( -inf , inf )
( -inf , inf )
( -inf , inf )

  end
  begin
    id 16
    name rhumerus
    direction -1 -1.83355e-005 2.45537e-005
    length 12.4217
    axis 180 30 90 xyz
    dof rx ry rz
    limits( -inf , inf )
( -inf , inf )
( -inf , inf )

  end
  begin
    id 17
    name rradius
    direction -1 -4.48967e-011 0
    length 5.51244
    axis 180 30 90 xyz
    dof rz ry rx
    limits( -inf , inf )
( -inf , inf )
( -inf , inf )

  end
  begin
    id 18
    name rwrist
    direction -1 -4.48964e-011 -4.48237e-017
    length 2.75622
    axis -90 -90 0 xyz
    dof rz rx ry
    limits( -inf , inf )
( -inf , inf )
( -inf , inf )

  end
  begin
    id 19
    name rhand
    direction -1 -4.48882e-011 -4.48237e-017
    length 1.81335
    axis -90 -90 0 xyz
    dof ry rx rz
    limits( -inf , inf )
( -inf , inf )
( -inf , inf )

  end
  begin
    id 20
    name rfingers
    direction 0 0 0
    length 0
    axis 0 0 0 xyz
    dof rz ry rx
    limits( -inf , inf )
( -inf , inf )
( -inf , inf )

  end
  begin
    id 21
    name rthumb
    direction 0 0 0
    length 0
    axis 0 0 0 xyz
    dof ry rx rz
    limits( -inf , inf )
( -inf , inf )
( -inf , inf )

  end
  begin
    id 22
    name rfemurDummy
    direction -0.640058 -0.688614 0.340788
    length 5.51442
    axis 0 -0 0 xyz
  end
  begin
    id 23
    name rfemur
    direction -0.34202 -0.939693 0
    length 14.6194
    axis 0 -0 -20 xyz
    dof rx ry rz
    limits( -inf , inf )
( -inf , inf )
( -inf , inf )

  end
  begin
    id 24
    name rtibia
    direction -0.34202 -0.939693 0
    length 17.7267
    axis 0 -0 -20 xyz
    dof rz ry rx
    limits( -inf , inf )
( -inf , inf )
( -inf , inf )

  end
  begin
    id 25
    name rfoot
    direction -0.0979793 -0.269196 0.958089
    length 4.88571
    axis -90 -7.62852e-016 -20 xyz
    dof ry rx rz
    limits( -inf , inf )
( -inf , inf )
( -inf , inf )

  end
  begin
    id 26
    name rtoes
    direction 0 0 0
    length 0
    axis 0 0 0 xyz
    dof rz ry rx
    limits( -inf , inf )
( -inf , inf )
( -inf , inf )

  end
  begin
    id 27
    name lfemurDummy
    direction 0.653368 -0.678499 0.335782
    length 5.59662
    axis 0 -0 0 xyz
  end
  begin
    id 28
    name lfemur
    direction 0.34202 -0.939693 0
    length 14.6166
    axis 0 -0 20 xyz
    dof rx ry rz
    limits( -inf , inf )
( -inf , inf )
( -inf , inf )

  end
  begin
    id 29
    name ltibia
    direction 0.34202 -0.939693 0
    length 17.6582
    axis 0 -0 20 xyz
    dof rz ry rx
    limits( -inf , inf )
( -inf , inf )
( -inf , inf )

  end
  begin
    id 30
    name lfoot
    direction 0.0811271 -0.222895 0.971461
    length 5.14087
    axis -90 7.62852e-016 20 xyz
    dof ry rx rz
    limits( -inf , inf )
( -inf , inf )
( -inf , inf )

  end
  begin
    id 31
    name ltoes
    direction 0 0 0
    length 0
    axis 0 0 0 xyz
    dof rz ry rx
    limits( -inf , inf )
( -inf , inf )
( -inf , inf )

  end
:hierarchy
  begin
    root lowerbackDummy rfemurDummy lfemurDummy
    lowerbackDummy lowerback
    lowerback upperback
    upperback thorax
    thorax lowerneck lclavicle rclavicle
    lowerneck upperneck
    upperneck head
    lclavicle lhumerus
    lhumerus lradius
    lradius lwrist
    lwrist lhand lthumb
    lhand lfingers
    rclavicle rhumerus
    rhumerus rradius
    rradius rwrist
    rwrist rhand rthumb
    rhand rfingers
    rfemurDummy rfemur
    rfemur rtibia
    rtibia rfoot
    rfoot rtoes
    lfemurDummy lfemur
    lfemur ltibia
    ltibia lfoot
    lfoot ltoes
  end

:SAMPLES-PER-SECOND 30
:FULLY-SPECIFIED
:DEGREES
88
root  2.20324674 37.46244476 -27.54866532 10.94820023 0.6058509946 0.08654910326
lowerback  -2.927580118 0.272213012 -1.990990043
upperback  -2.9879601 0.4017620087 0.4521619976
thorax  -1.441349983 0.2424709946 1.585919976
lowerneck  -15.00329971 -0.7667099833 -1.713240027
upperneck  38.29550171 0.02782469988 -1.468999982
head  16.20050049 -0.4403490126 -0.3292169869
lclavicle  0 5.864150125e-015 -2.067359921e-014
lhumerus  -34.88249969 18.74990082 65.79419708
lradius  -2.304411313e-031 -2.67554341e-031 49.26210022
lwrist  -3.531125038e-031 -7.062250077e-031 -1.751219988
lhand  -3.53365758e-031 2.169349909 20.55940056
lfingers  90 7.125020027 -90
lthumb  91.64753946 3.138985925 62.28835476
rclavicle  0 5.864150125e-015 -2.067359921e-014
rhumerus  -43.70149994 -11.20580006 -73.58889771
rradius  3.082321852e-031 1.722827918e-031 29.20249939
rwrist  0 -0 -12.32999992
rhand  -3.551362419e-031 -6.119609833 11.4435997
rfingers  -90 -7.125020027 -90
rthumb  -80.07048178 -25.69389603 -68.01272367
rfemur  -36.20709991 10.22789955 17.1182003
rtibia  -0 0 26.31640053
rfoot  -0 -17.84199905 -23.07250023
rtoes  1.686547322 19.9316643 -94.9365277
lfemur  -7.780829906 -9.971449852 -25.01409912
ltibia  -0 0 18.31529999
lfoot  -0 -24.07869911 21.46710014
ltoes  -5.090583168 -19.3670085 -105.0362961
89
root  2.185591187 37.47600045 -27.2277772 10.91819954 0.825601995 0.2344760001
lowerback  -2.917049885 0.1936949939 -2.06291008
upperback  -2.920969963 0.2983779907 0.4353930056
thorax  -1.374349952 0.1905110031 1.607560039
lowerneck  -15.12689972 -0.7620099783 -1.799890041
upperneck  38.43090057 0.03330989927 -1.375720024
head  16.30200005 -0.4388009906 -0.2739750147
lclavicle  0 5.864150125e-015 -2.067359921e-014
lhumerus  -34.60079956 18.56710052 65.58010101
lradius  -2.305489912e-031 -2.674614048e-031 49.23899841
lwrist  -1.059337512e-030 -3.531125038e-031 -2.197900057
lhand  -7.06723604e-031 2.152349949 20.97050095
lfingers  90 7.125020027 -90
lthumb  91.83928643 3.505735989 62.29340866
rclavicle  0 5.864150125e-015 -2.067359921e-014
rhumerus  -43.66699982 -11.28680038 -73.56809998
rradius  3.082027132e-031 1.723355098e-031 29.21229935
rwrist  7.062250077e-031 -0 -12.32929993
rhand  -3.551671829e-031 -6.165989876 11.79199982
rfingers  -90 -7.125020027 -90
rthumb  -79.9487294 -26.02032024 -67.99914983
rfemur  -36.44010162 11.38379955 16.13330078
rtibia  -0 0 24.78989983
rfoot  -0 -18.50819969 -24.26070023
rtoes  1.671504515 19.93288027 -94.89240214
lfemur  -6.38740015 -10.18570042 -25.19759941
ltibia  -0 0 16.91139984
lfoot  -0 -23.93199921 21.46190071
ltoes  -5.053144081 -19.37645903 -104.9234244
90
root  2.161806587 37.47066588 -26.92822133 10.99470043 0.9498900175 0.3585749865
lowerback  -2.873239994 0.1200340018 -2.26177001
upperback  -2.905319929 0.2034920007 0.532491982
thorax  -1.380349994 0.1474419981 1.817199945
lowerneck  -15.2123003 -0.7193790078 -1.801779985
upperneck  38.5155983 0.1689649969 -1.538709998
head  16.36879921 -0.4065690041 -0.322183013
lclavicle  0 5.864150125e-015 -2.067359921e-014
lhumerus  -34.35770035 18.45870018 65.56529999
lradius  -2.305718549e-031 -2.674416947e-031 49.23410034
lwrist  -1.059337512e-030 -0 -2.185899973
lhand  -3.534036974e-031 2.32607007 20.15449905
lfingers  90 7.125020027 -90
lthumb  91.45503155 2.755376679 62.14860433
rclavicle  0 5.864150125e-015 -2.067359921e-014
rhumerus  -43.70460129 -11.04679966 -73.53970337
rradius  3.072964494e-031 1.739463497e-031 29.5121994
rwrist  7.062250077e-031 -1.765562519e-031 -12.33430004
rhand  -3.553278622e-031 -6.401340008 11.57830048
rfingers  -90 -7.125020027 -90
rthumb  -80.15508637 -25.83972675 -68.28984227
rfemur  -36.90629959 13.04269981 14.90740013
rtibia  -0 0 23.40209961
rfoot  -0 -19.34560013 -25.78380013
rtoes  1.06262196 19.97290535 -93.10824501
lfemur  -5.23195982 -10.21199989 -25.32069969
ltibia  -0 0 15.55440044
lfoot  -0 -23.53009987 21.46109962
ltoes  -6.185947342 -19.05667045 -108.3641987
91
root  2.141728927 37.46088884 -26.62755411 11.02770042 0.8352950215 0.4695169926
lowerback  -2.902420044 0.1388529986 -2.419879913
upperback  -2.829390049 0.2330269963 0.5810289979
thorax  -1.288679957 0.1634979993 1.956539989
lowerneck  -15.34319973 -0.6496359706 -1.742879987
upperneck  38.59529877 0.3091590106 -1.655779958
head  16.44420052 -0.3570930064 -0.3604199886
lclavicle  0 5.864150125e-015 -2.067359921e-014
lhumerus  -34.10100174 18.39179993 65.50279999
lradius  -2.303790272e-031 -2.676078179e-031 49.27539825
lwrist  -1.059337512e-030 -0 -2.487859964
lhand  -3.534726221e-031 2.586539984 20.2737999
lfingers  90 7.125020027 -90
lthumb  91.50415903 2.818538816 61.89759436
rclavicle  0 5.864150125e-015 -2.067359921e-014
rhumerus  -43.74319839 -10.81649971 -73.57759857
rradius  3.066443118e-031 1.750934219e-031 29.72629929
rwrist  7.062250077e-031 -1.765562519e-031 -12.55290031
rhand  -3.553736384e-031 -6.466790199 11.10289955
rfingers  -90 -7.125020027 -90
rthumb  -80.38176837 -25.40258689 -68.44376474
rfemur  -37.49969864 15.17080021 13.43789959
rtibia  -0 0 22.27639961
rfoot  -0 -20.82139969 -27.22509956
rtoes  0.2614882883 19.99836052 -90.76456064
lfemur  -4.015059948 -10.15139961 -25.5067997
ltibia  -0 0 14.1868
lfoot  -0 -23.10549927 21.70429993
ltoes  -7.189766747 -18.71257021 -111.4649366
92
root  2.126768818 37.45466518 -26.30399869 11.06070042 0.7687579989 0.5687230229
lowerback  -2.943710089 0.1838600039 -2.412290096
upperback  -2.893260002 0.2929620147 0.5236499906
thorax  -1.333989978 0.1940719932 1.894350052
lowerneck  -15.23120022 -0.6283789873 -1.708840013
upperneck  38.75529861 0.2975220084 -1.572180033
head  16.49990082 -0.3452849984 -0.3328180015
lclavicle  0 5.864150125e-015 -2.067359921e-014
lhumerus  -34.12419891 18.19989967 65.19860077
lradius  -2.303607998e-031 -2.676235085e-031 49.27930069
lwrist  -7.062250077e-031 -0 -2.870229959
lhand  -3.534585904e-031 2.535690069 20.31870079
lfingers  90 7.125020027 -90
lthumb  91.52662923 2.86640891 61.94500254
rclavicle  0 5.864150125e-015 -2.067359921e-014
rhumerus  -44.03519821 -10.81910038 -73.53009796
rradius  3.068393967e-031 1.747513234e-031 29.66239929
rwrist  7.062250077e-031 -0 -12.48659992
rhand  -3.555887851e-031 -6.765749931 11.07419968
rfingers  -90 -7.125020027 -90
rthumb  -80.53957347 -25.39678826 -68.76757074
rfemur  -38.11429977 17.16559982 11.95289993
rtibia  -0 0 21.37520027
rfoot  -0 -22.2336998 -28.60810089
rtoes  -0.06640367693 19.99989428 -89.80584831
lfemur  -2.756939888 -10.02169991 -25.68440056
ltibia  -0 0 12.89480019
lfoot  -0 -22.77409935 21.63640022
ltoes  -6.577686801 -18.92937239 -109.5678328
93
root  2.108684487 37.43155472 -25.98777831 11.16230011 0.7078239918 0.8627439737
lowerback  -3.0567801 0.2014980018 -2.638459921
upperback  -2.907540083 0.3229939938 0.4617500007
thorax  -1.288460016 0.2119340003 1.958729982
lowerneck  -15.22340012 -0.684581995 -1.808419943
upperneck  38.86360168 0.2286390066 -1.525449991
head  16.5557003 -0.3824050128 -0.3079020083
lclavicle  0 5.864150125e-015 -2.067359921e-014
lhumerus  -34.05270004 18.15640068 64.98459625
lradius  -2.310447951e-031 -2.670332246e-031 49.13270187
lwrist  -3.531125038e-031 -0 -2.990339994
lhand  -7.068870074e-031 2.479850054 20.09799957
lfingers  90 7.125020027 -90
lthumb  91.42431482 2.680645669 62.00327326
rclavicle  0 5.864150125e-015 -2.067359921e-014
rhumerus  -44.13389969 -10.97060013 -73.34329987
rradius  3.070657491e-031 1.743532796e-031 29.58810043
rwrist  1.412450015e-030 -0 -12.25809956
rhand  -0 -7.185110092 10.64649963
rfingers  -90 -7.125020027 -90
rthumb  -80.91172094 -25.02571919 -69.28620629
rfemur  -38.92110062 18.9253006 10.26690006
rtibia  -0 0 20.7371006
rfoot  -0 -23.87050056 -29.73080063
rtoes  -0.2269807278 19.99876469 -89.33633964
lfemur  -1.59375 -9.901339531 -26.04430008
ltibia  -0 0 11.61030006
lfoot  -0 -22.51749992 21.55509949
ltoes  -6.004817494 -19.11257662 -107.8102282
94
root  2.083986575 37.40622152 -25.67644495 11.17459965 0.6900460124 1.093369961
lowerback  -3.149110079 0.2173999995 -2.8229599
upperback  -2.805660009 0.3514640033 0.427531004
thorax  -1.134920001 0.2255519927 2.028470039
lowerneck  -15.27029991 -0.7094150186 -1.841599941
upperneck  38.89220047 0.205211997 -1.526550055
head  16.58300018 -0.396916002 -0.3070740104
lclavicle  0 5.864150125e-015 -2.067359921e-014
lhumerus  -33.76399994 18.2105999 64.81230164
lradius  -2.324954736e-031 -2.657711329e-031 48.8207016
lwrist  -1.059337512e-030 -3.531125038e-031 -3.027199984
lhand  -7.06844271e-031 2.398530006 19.94759941
lfingers  90 7.125020027 -90
lthumb  91.35613671 2.560897073 62.08398631
rclavicle  0 5.864150125e-015 -2.067359921e-014
rhumerus  -44.13339996 -10.82359982 -73.43869781
rradius  3.068387859e-031 1.747523959e-031 29.66259956
rwrist  1.412450015e-030 -1.765562519e-031 -12.28859997
rhand  -1.779970402e-031 -7.294990063 10.22350025
rfingers  -90 -7.125020027 -90
rthumb  -81.12810152 -24.6368662 -69.47182947
rfemur  -39.64250183 20.52630043 8.738619804
rtibia  -0 0 20.25349998
rfoot  -0 -24.97060013 -30.90169907
rtoes  -0.2669898638 19.9982908 -89.21935253
lfemur  -0.4388070107 -9.707030296 -26.29459953
ltibia  -0 0 10.39190006
lfoot  -0 -22.05629921 21.47999954
ltoes  -5.901881216 -19.14352645 -107.4960928
